<svg xmlns="http://www.w3.org/2000/svg" width="960" height="640" viewBox="0 0 960 640" role="img" aria-labelledby="title desc">
  <title id="title">髋外展机</title>
  <desc id="desc">髋外展机的健身器械动作示意图</desc>
  <defs>
    <linearGradient id="bg" x1="0" x2="1" y1="0" y2="1">
      <stop offset="0" stop-color="#342915"/>
      <stop offset="1" stop-color="#b7791f"/>
    </linearGradient>
    <filter id="shadow" x="-20%" y="-20%" width="140%" height="140%">
      <feDropShadow dx="0" dy="16" stdDeviation="18" flood-color="#000000" flood-opacity=".22"/>
    </filter>
  </defs>
  <rect width="960" height="640" rx="44" fill="url(#bg)"/>
  <circle cx="770" cy="120" r="110" fill="#fde68a" opacity=".18"/>
  <circle cx="160" cy="520" r="150" fill="#fde68a" opacity=".12"/>
  <g filter="url(#shadow)">
    <rect x="118" y="448" width="660" height="30" rx="15" fill="#fde68a"/>
    <rect x="124" y="338" width="190" height="56" rx="22" fill="#fde68a"/>
    <rect x="150" y="210" width="34" height="170" rx="17" fill="#fde68a"/>
    <rect x="254" y="254" width="34" height="126" rx="17" fill="#fde68a" opacity=".82"/>
    <rect x="286" y="174" width="104" height="228" rx="18" fill="#fde68a"/>
    <path d="M302 216H374M302 258H374M302 300H374M302 342H374" stroke="#342915" stroke-width="10" stroke-linecap="round" opacity=".55"/>
    <rect x="430" y="102" width="188" height="24" rx="12" fill="#fde68a"/>
    <rect x="516" y="102" width="24" height="168" rx="12" fill="#fde68a"/>
    <rect x="384" y="270" width="154" height="44" rx="22" fill="#fde68a"/>
  </g>
  <g>
    <rect x="62" y="54" width="172" height="44" rx="22" fill="#ffffff" opacity=".94"/>
    <text x="148" y="84" text-anchor="middle" font-family="Microsoft YaHei, Arial, sans-serif" font-size="24" font-weight="700" fill="#342915">腿部</text>
    <text x="62" y="556" font-family="Microsoft YaHei, Arial, sans-serif" font-size="50" font-weight="800" fill="#ffffff">髋外展机</text>
    <text x="64" y="600" font-family="Microsoft YaHei, Arial, sans-serif" font-size="28" font-weight="700" fill="#fde68a">髋外展</text>
  </g>
</svg>