<svg xmlns="http://www.w3.org/2000/svg" width="960" height="640" viewBox="0 0 960 640" role="img" aria-labelledby="title desc">
  <title id="title">蝴蝶机夹胸</title>
  <desc id="desc">蝴蝶机夹胸的健身器械动作示意图</desc>
  <defs>
    <linearGradient id="bg" x1="0" x2="1" y1="0" y2="1">
      <stop offset="0" stop-color="#123524"/>
      <stop offset="1" stop-color="#16a05d"/>
    </linearGradient>
    <filter id="shadow" x="-20%" y="-20%" width="140%" height="140%">
      <feDropShadow dx="0" dy="16" stdDeviation="18" flood-color="#000000" flood-opacity=".22"/>
    </filter>
  </defs>
  <rect width="960" height="640" rx="44" fill="url(#bg)"/>
  <circle cx="770" cy="120" r="110" fill="#a7f3c1" opacity=".18"/>
  <circle cx="160" cy="520" r="150" fill="#a7f3c1" opacity=".12"/>
  <g filter="url(#shadow)">
    <rect x="118" y="448" width="660" height="30" rx="15" fill="#a7f3c1"/>
    <rect x="124" y="338" width="190" height="56" rx="22" fill="#a7f3c1"/>
    <rect x="150" y="210" width="34" height="170" rx="17" fill="#a7f3c1"/>
    <rect x="254" y="254" width="34" height="126" rx="17" fill="#a7f3c1" opacity=".82"/>
    <rect x="310" y="174" width="104" height="228" rx="18" fill="#a7f3c1"/>
    <path d="M326 216H398M326 258H398M326 300H398M326 342H398" stroke="#123524" stroke-width="10" stroke-linecap="round" opacity=".55"/>
    <rect x="430" y="94" width="188" height="24" rx="12" fill="#a7f3c1"/>
    <rect x="516" y="94" width="24" height="168" rx="12" fill="#a7f3c1"/>
    <rect x="384" y="270" width="154" height="44" rx="22" fill="#a7f3c1"/>
  </g>
  <g>
    <rect x="62" y="54" width="172" height="44" rx="22" fill="#ffffff" opacity=".94"/>
    <text x="148" y="84" text-anchor="middle" font-family="Microsoft YaHei, Arial, sans-serif" font-size="24" font-weight="700" fill="#123524">胸部</text>
    <text x="62" y="556" font-family="Microsoft YaHei, Arial, sans-serif" font-size="50" font-weight="800" fill="#ffffff">蝴蝶机夹胸</text>
    <text x="64" y="600" font-family="Microsoft YaHei, Arial, sans-serif" font-size="28" font-weight="700" fill="#a7f3c1">夹胸机</text>
  </g>
</svg>