<svg xmlns="http://www.w3.org/2000/svg" width="960" height="640" viewBox="0 0 960 640" role="img" aria-labelledby="title desc">
  <title id="title">坐姿划船</title>
  <desc id="desc">坐姿划船的健身器械动作示意图</desc>
  <defs>
    <linearGradient id="bg" x1="0" x2="1" y1="0" y2="1">
      <stop offset="0" stop-color="#142f3f"/>
      <stop offset="1" stop-color="#0f8aa6"/>
    </linearGradient>
    <filter id="shadow" x="-20%" y="-20%" width="140%" height="140%">
      <feDropShadow dx="0" dy="16" stdDeviation="18" flood-color="#000000" flood-opacity=".22"/>
    </filter>
  </defs>
  <rect width="960" height="640" rx="44" fill="url(#bg)"/>
  <circle cx="770" cy="120" r="110" fill="#a5f3fc" opacity=".18"/>
  <circle cx="160" cy="520" r="150" fill="#a5f3fc" opacity=".12"/>
  <g filter="url(#shadow)">
    <rect x="118" y="448" width="660" height="30" rx="15" fill="#a5f3fc"/>
    <rect x="124" y="338" width="190" height="56" rx="22" fill="#a5f3fc"/>
    <rect x="150" y="210" width="34" height="170" rx="17" fill="#a5f3fc"/>
    <rect x="254" y="254" width="34" height="126" rx="17" fill="#a5f3fc" opacity=".82"/>
    <rect x="286" y="174" width="104" height="228" rx="18" fill="#a5f3fc"/>
    <path d="M302 216H374M302 258H374M302 300H374M302 342H374" stroke="#142f3f" stroke-width="10" stroke-linecap="round" opacity=".55"/>
    <rect x="430" y="86" width="188" height="24" rx="12" fill="#a5f3fc"/>
    <rect x="516" y="86" width="24" height="168" rx="12" fill="#a5f3fc"/>
    <path d="M538 94C620 188 650 268 612 362" fill="none" stroke="#a5f3fc" stroke-width="14" stroke-linecap="round"/><circle cx="612" cy="362" r="28" fill="#a5f3fc"/>
  </g>
  <g>
    <rect x="62" y="54" width="172" height="44" rx="22" fill="#ffffff" opacity=".94"/>
    <text x="148" y="84" text-anchor="middle" font-family="Microsoft YaHei, Arial, sans-serif" font-size="24" font-weight="700" fill="#142f3f">背部</text>
    <text x="62" y="556" font-family="Microsoft YaHei, Arial, sans-serif" font-size="50" font-weight="800" fill="#ffffff">坐姿划船</text>
    <text x="64" y="600" font-family="Microsoft YaHei, Arial, sans-serif" font-size="28" font-weight="700" fill="#a5f3fc">划船机</text>
  </g>
</svg>